<!DOCTYPE svg PUBLIC "-//W3C//DTD SVG 1.1//EN" "http://www.w3.org/Graphics/SVG/1.1/DTD/svg11.dtd">
<!-- Uploaded to: SVG Repo, www.svgrepo.com, Transformed by: SVG Repo Mixer Tools -->
<svg fill="#60a329" height="800px" width="800px" version="1.1" id="Layer_1" xmlns="http://www.w3.org/2000/svg" xmlns:xlink="http://www.w3.org/1999/xlink" viewBox="0 0 472.616 472.616" xml:space="preserve" stroke="#60a329">
<g id="SVGRepo_bgCarrier" stroke-width="0"/>
<g id="SVGRepo_tracerCarrier" stroke-linecap="round" stroke-linejoin="round"/>
<g id="SVGRepo_iconCarrier"> <g> <g> <path d="M243.269,2.884c-3.846-3.846-10.077-3.846-13.922,0l-39.385,39.385l13.922,13.923l22.577-22.577V78.77h19.692V33.615 l22.577,22.577l13.922-13.923L243.269,2.884z"/> </g> </g> <g> <g> <path d="M99.943,86.024h31.933V66.332H76.173c-5.437,0-9.846,4.408-9.846,9.846v55.697h19.692V99.948l31.981,31.98l13.922-13.923 L99.943,86.024z"/> </g> </g> <g> <g> <path d="M78.769,226.462H33.616l22.576-22.577L42.27,189.961L2.885,229.346c-3.847,3.847-3.847,10.078,0,13.923l39.385,39.385 l13.922-13.923l-22.576-22.576h45.154V226.462z"/> </g> </g> <g> <g> <path d="M131.928,354.616l-13.922-13.923l-31.986,31.983v-31.93H66.327v55.697c0,5.438,4.409,9.846,9.846,9.846h55.703v-19.692 H99.945L131.928,354.616z"/> </g> </g> <g> <g> <path d="M268.731,416.423L246.154,439v-45.153h-19.692V439l-22.577-22.577l-13.922,13.923l39.385,39.385 c1.923,1.923,4.442,2.885,6.961,2.885c2.52,0,5.038-0.962,6.961-2.885l39.385-39.385L268.731,416.423z"/> </g> </g> <g> <g> <path d="M386.597,340.745v31.93l-31.986-31.983l-13.922,13.923l31.983,31.98H340.74v19.692h55.703 c5.437,0,9.846-4.408,9.846-9.846v-55.697H386.597z"/> </g> </g> <g> <g> <path d="M469.731,229.346l-39.385-39.385l-13.922,13.923L439,226.462h-45.153v19.692H439l-22.576,22.576l13.922,13.923 l39.385-39.385C473.578,239.424,473.578,233.193,469.731,229.346z"/> </g> </g> <g> <g> <path d="M396.443,66.332H340.74v19.692h31.933l-31.98,31.98l13.922,13.923l31.981-31.98v31.927h19.692V76.178 C406.289,70.74,401.88,66.332,396.443,66.332z"/> </g> </g> <g> <g> <path d="M169.866,246.154c0.681,18.851,3.266,36.777,7.393,52.941c15.542-6.28,32.12-9.926,49.203-10.976v-41.964H169.866z"/> </g> </g> <g> <g> <path d="M177.337,173.188c-4.175,16.248-6.785,34.294-7.471,53.274h56.596v-42.326 C209.407,183.088,192.857,179.451,177.337,173.188z"/> </g> </g> <g> <g> <path d="M287.114,108.286c7.771,10.172,14.544,22.615,20.027,36.921c6.559-3.948,12.829-8.414,18.726-13.476 C314.415,121.907,301.353,113.956,287.114,108.286z"/> </g> </g> <g> <g> <path d="M183.198,154.336c13.643,5.694,28.225,9.051,43.264,10.108v-64.231C209.009,105.833,193.574,125.972,183.198,154.336z"/> </g> </g> <g> <g> <path d="M146.752,131.725c5.897,5.06,12.165,9.532,18.723,13.478c5.483-14.305,12.256-26.747,20.026-36.918 C171.264,113.956,158.204,121.905,146.752,131.725z"/> </g> </g> <g> <g> <path d="M132.773,145.6c-19.253,21.947-31.614,49.989-33.812,80.862h51.227c0.728-22.38,3.872-43.342,9.033-62.07 C149.848,159.111,141.011,152.814,132.773,145.6z"/> </g> </g> <g> <g> <path d="M150.188,246.154H98.961c2.191,30.777,14.479,58.745,33.633,80.664c8.265-7.26,17.134-13.596,26.546-18.906 C154.029,289.263,150.91,268.412,150.188,246.154z"/> </g> </g> <g> <g> <path d="M165.358,327.122c-6.592,3.977-12.884,8.487-18.804,13.587c11.501,9.902,24.627,17.917,38.948,23.622 C177.677,354.089,170.861,341.553,165.358,327.122z"/> </g> </g> <g> <g> <path d="M183.086,317.972c10.376,28.525,25.861,48.791,43.376,54.432v-64.593C211.38,308.871,196.761,312.251,183.086,317.972z"/> </g> </g> <g> <g> <path d="M307.257,327.124c-5.503,14.429-12.319,26.965-20.143,37.207c14.322-5.705,27.448-13.72,38.948-23.622 C320.142,335.608,313.848,331.101,307.257,327.124z"/> </g> </g> <g> <g> <path d="M322.428,246.154c-0.723,22.256-3.84,43.106-8.951,61.755c9.412,5.31,18.281,11.647,26.545,18.909 c19.154-21.919,31.442-49.887,33.633-80.664H322.428z"/> </g> </g> <g> <g> <path d="M246.154,100.213v64.231c15.041-1.057,29.627-4.408,43.267-10.1C279.045,125.975,263.607,105.834,246.154,100.213z"/> </g> </g> <g> <g> <path d="M339.846,145.603c-8.237,7.216-17.074,13.515-26.449,18.796c5.16,18.725,8.303,39.685,9.031,62.062h51.227 C371.457,195.591,359.097,167.552,339.846,145.603z"/> </g> </g> <g> <g> <path d="M295.278,173.187c-15.518,6.26-32.066,9.9-49.123,10.949v42.326h56.596C302.064,207.483,299.452,189.436,295.278,173.187z "/> </g> </g> <g> <g> <path d="M246.154,307.812v64.592c17.516-5.642,33.002-25.908,43.378-54.435C275.858,312.245,261.237,308.872,246.154,307.812z"/> </g> </g> <g> <g> <path d="M246.154,246.154v41.965c17.085,1.051,33.66,4.7,49.202,10.979c4.127-16.164,6.712-34.091,7.394-52.945H246.154z"/> </g> </g> </g>
</svg>